<svg width="1060" height="304" viewBox="0 0 1060 304" fill="none" xmlns="http://www.w3.org/2000/svg">
<g clip-path="url(#clip0_1_227)">
<path d="M0 8.00001C0 3.58173 3.58172 0 8 0H1052C1056.42 0 1060 3.58172 1060 8V296C1060 300.418 1056.42 304 1052 304H7.99997C3.58169 304 0 300.418 0 296V8.00001Z" fill="#153C3C"/>
<path d="M815.514 79.774C814.948 79.18 814.823 78.2132 813.21 78.4018C812.847 78.8566 812.322 79.2813 812.206 79.6473C811.66 82.1408 810.993 84.6456 810.344 87.1714C809.955 89.9987 809.881 92.7388 810.122 95.3705L807.852 99.3298L807.761 107.318C807.839 107.505 807.985 107.659 808.19 107.768L809.321 108.468C810.619 108.018 811.898 107.548 813.237 107.073C812.749 109.139 814.043 110.846 811.504 113.407L808.67 112.593C808.329 113.002 807.762 113.452 807.688 113.792C807.487 115.323 807.14 116.891 806.649 118.486C806.038 119.899 805.833 121.25 806.046 122.452C806.358 123.818 806.02 125.42 805.071 127.074C803.815 129.03 805.564 130.031 804.296 131.766C803.028 133.502 804.972 133.172 805.269 133.902C806.042 133.287 806.92 132.741 807.852 132.293C808.553 132.053 809.274 132.321 809.694 132.484C811.039 131.875 812.403 130.797 811.969 132.503C811.176 132.555 810.414 132.548 809.694 132.484C808.518 133.269 807.307 134.023 806.069 134.742C807.021 135.324 805.655 136.468 805.437 137.354C805.219 138.241 803.895 139.359 804.867 139.961C806.273 139.347 807.438 137.643 809.083 138.184C806.909 140.223 806.909 140.223 804.867 139.961C803.519 140.637 803.393 141.271 803.611 141.919L804.055 143.012L802.178 146.826L804.949 149.734C804.212 150.96 803.579 152.182 803.057 153.393C802.982 154.246 803.011 155.068 803.142 155.853C802.748 160.177 803.135 164.277 802.146 168.744C801.84 170.306 804.441 170.318 803.293 172.109C802.145 173.901 804.078 174.884 802.355 176.838C800.632 178.793 802.502 179.293 801.812 180.799C801.123 182.306 802.208 183.653 800.813 185.534C799.417 187.415 801.472 188.387 800.06 190.18C802.791 192.559 800.046 196.716 801.179 200.972L803.911 203.839L802.906 206.13L809.209 212.746L812.185 212.524L813.941 214.368C814.563 214.363 815.279 214.165 815.937 213.816C816.596 213.467 817.145 212.993 817.47 212.496C827.617 200.01 828.332 198.878 831.358 192.229C831.988 191.869 832.6 191.488 833.192 191.087C833.483 190.906 833.455 190.597 833.699 190.086L832.079 188.386C831.942 188.242 832.117 187.938 832.125 187.737C833.074 186.852 834.004 185.946 834.932 185.108L834.014 184.145L837.904 175.196C836.278 173.14 840.963 169.766 839.793 167.492C839.692 167.317 839.548 167.165 839.364 167.041L841.579 162.398L844.501 156.335C842.826 154.996 845.133 152.678 845.897 150.832C846.661 148.985 848.164 146.939 847.273 145.307C846.805 144.816 848.307 143.326 848.589 142.367C849.404 139.738 852.221 136.841 851.606 134.384C850.992 131.927 855.447 128.729 853.571 126.83L859.967 114.1L858.933 113.014C860.624 109.774 861.133 106.669 860.405 104.035L864.791 95.8863L864.05 95.1077C865.022 92.0871 867.914 88.8498 867.772 86.2626C867.631 83.6746 870.139 80.8715 870.954 78.2427C871.046 77.9901 871.426 77.6227 871.309 77.4998C869.982 76.1069 872.683 73.5761 872.416 72.1108C872.319 70.8504 872.601 69.4681 873.247 68.0355C874.173 65.1744 877.06 62.0713 876.456 59.3469C875.973 57.1673 880.296 53.6914 878.504 51.7399L883.692 41.2962C881.565 39.0635 886.545 35.4399 885.402 32.9859C884.463 31.0249 889.382 27.4069 887.305 25.4364C889 22.4554 890.223 19.5019 890.945 16.6426C891.717 13.7675 892.952 10.8086 894.626 7.82271C895.73 5.07899 897.304 2.27106 898.633 -0.515003L903.181 -9.67906L902.088 -10.8261C902.888 -11.52 904.43 -12.4801 904.682 -13.1916C905.743 -16.3984 909.973 -19.5548 910.728 -22.7341L916.16 -21.8414L918.463 -19.4244L921.458 -19.6254L927.703 -13.0706L926.716 -11.2488L932.103 -5.59531L931.083 -3.45928L933.562 -0.857895L932.771 1.65767L936.108 5.16038L935.24 7.59409L937.738 10.216L936.811 12.5883L939.309 15.2101L938.304 17.5004L940.041 19.3234L939.036 21.6137L940.773 23.4368L939.893 25.6492C940.693 26.489 942.174 27.0679 942.137 28.0048C941.848 29.7956 942.211 31.3964 943.193 32.6672C941.633 35.6294 943.751 37.5739 941.985 40.5991L943.781 42.4835L942.809 44.4597L944.51 46.6638C942.995 48.4884 944.06 49.3269 945.333 50.5245C944.425 51.8887 943.794 53.2514 943.467 54.5588C943.405 55.6091 944.125 56.4338 943.054 57.8187L945.688 60.584C944.446 63.7402 945.672 66.1423 944.535 69.2001C946.974 70.2269 944.361 73.6167 947.115 74.9043L944.021 78.626L946.46 81.1868C944.246 83.7401 945.06 85.7791 944.503 88.0518C944.265 88.9178 945.115 89.5306 945.662 90.593C944.093 94.4277 943.534 98.1 944.016 101.409C944.146 103.503 943.748 105.767 942.837 108.117C942.418 109.655 942.285 111.132 942.44 112.508L944.741 115.481L941.884 117.848C942.162 118.325 942.38 118.833 942.535 119.368C942.58 119.764 941.987 120.396 941.949 120.843C941.985 121.564 942.093 122.26 942.273 122.925L940.572 126.367C940.35 127.877 943.366 128.185 941.284 130.461C941.86 132.818 941.488 135.533 940.2 138.381C939.726 139.759 939.619 141.067 939.885 142.233C940.143 144.454 939.906 146.854 939.816 149.129C940.235 151.413 939.61 154.06 938.01 156.781C938.829 158.59 938.648 160.83 937.493 163.207C936.36 165.641 937.441 167.613 935.468 170.211C937.887 170.729 933.637 173.865 936.097 174.356L933.112 180.491C935.3 181.673 934.079 184.295 934.223 186.326C934.709 188.249 934.526 190.429 933.685 192.731C932.344 195.296 933.389 197.159 931.967 199.709C930.545 202.259 932.04 204.037 929.764 206.596L932.497 209.463L927.259 220.134L929.21 222.182L926.487 224.76L926.529 230.38L924.446 231.677C924.821 233.614 924.619 235.762 923.85 238.021C922.453 240.457 924.245 241.919 922.425 244.26C922.04 244.761 921.501 245.521 921.716 245.746C923.219 247.324 919.834 250.182 920.75 251.701C921.665 253.219 918.988 255.148 919.607 257.47L919.841 257.716C918.73 259.741 917.768 261.756 916.961 263.753C916.298 265.635 914.063 267.679 915.296 269.392C916.193 270.335 912.883 272.853 913.926 274.227C914.969 275.6 911.581 278.037 912.589 279.792C913.376 280.967 912.332 283.216 912.005 285.312L913.527 286.91L912.522 289.2L914.24 291.003L913.299 293.22C914.688 294.052 914.489 296.003 917.118 295.835C918.128 294.945 917.6 293.903 919.374 293.255C919.1 292.48 918.125 291.944 920.563 291.438C920.221 292.044 919.823 292.651 919.374 293.255C919.822 293.65 920.226 294.074 920.584 294.525L924.786 294.127L926.39 291.073L924.031 291.105C924.308 289.176 924.368 287.306 924.211 285.51C923.984 284.575 924.875 283.628 925.012 282.727C925.15 281.826 928.929 280.287 927.485 278.772C926.939 278.198 928.165 276.488 928.66 275.266C929.155 274.044 927.896 273 929.202 271.306C930.178 269.88 931.035 268.452 931.769 267.031L929.603 264.758L932.13 262.531C933.316 260.649 934.15 258.778 934.605 256.976L930.166 256.149C930.466 254.233 932.684 253.635 934.32 252.355C934.625 251.839 935.368 251.017 935.434 250.389C935.378 248.453 935.975 246.323 937.184 244.142C935.838 242.728 937.816 240.484 938.541 238.597C938.749 237.978 937.933 237.54 938.12 236.901C938.65 234.809 940.876 232.476 940.346 230.456C939.816 228.436 943.595 225.364 942.637 223.383C941.679 221.402 945.665 218.756 943.584 217.408C944.114 215.883 944.857 214.327 945.8 212.765C947.045 211.076 945.222 210.416 946.262 208.789C947.301 207.162 948.478 205.68 946.885 204.844C948.456 203.147 946.966 202.281 947.469 200.858C948.209 199.416 948.601 198.01 948.628 196.708C948.178 194.567 948.361 192.187 949.17 189.681C950.202 187.21 949.364 185.284 950.847 182.729C951.932 181.047 952.234 179.41 951.699 178.118C950.665 177.033 952.708 175.205 951.708 174.295C950.707 173.384 952.532 171.954 952.719 170.826C952.802 170.166 952.814 169.525 952.753 168.911C952.617 167.723 953.882 166.054 952.801 165.128C953.944 162.955 954.538 160.835 954.552 158.881C954.808 157.547 955.878 156.162 955.28 154.838C954.682 153.513 957.34 151.564 956.63 149.983C956.18 149.022 958.234 146.928 958.137 145.78C958.04 144.633 957.502 143.859 958.609 142.582L956.658 140.534C957.559 138.638 958.044 136.793 958.093 135.071C958.022 133.254 958.243 131.256 958.153 129.419C958.063 127.583 960.935 125.37 959.24 124.01C960.529 121.739 959.535 120.138 959.796 118.182C960.056 116.224 960.132 114.284 960.434 112.301C960.156 110.5 960.344 108.533 960.989 106.472C959.274 105.647 961.318 103.82 961.593 102.506C961.819 101.392 961.903 100.314 961.842 99.2829C961.718 97.4403 961.821 95.5217 962.15 93.5432C962.36 91.813 963.249 89.8888 963.507 87.9985C963.771 81.3064 964.368 74.4071 964.454 67.5979C964.794 66.0062 964.579 64.5625 963.828 63.3863C963.125 62.6489 963.987 60.9048 963.873 59.6703C963.759 58.4357 965.298 56.0088 964.5 55.102C963.511 53.8259 963.176 52.2026 963.528 50.3879C963.711 48.6337 963.416 47.0261 962.658 45.6421C962.466 44.0305 962.679 42.2794 963.29 40.4512C963.226 38.7961 963.328 37.087 963.594 35.334C964.096 33.422 960.387 33.1533 963.094 30.4886C960.191 29.8812 962.647 26.8833 961.547 25.3811C960.496 23.9028 960.54 21.8854 961.669 19.7246C959.321 18.4451 962.026 14.8026 959.37 13.6175L960.311 11.3995L958.574 9.57651L959.579 7.28625L957.842 5.46318L958.834 3.50739L955.263 -0.241051L955.775 -1.37595C955.927 -1.63406 956.227 -2.01648 956.129 -2.1189C954.802 -3.51178 955.518 -5.68735 954.85 -7.29469C954.359 -8.0201 953.738 -8.67166 952.996 -9.24061L953.876 -11.4531L951.3 -14.1569L952.305 -16.4472L949.67 -19.2125L950.675 -21.5028L946.265 -26.1321L947.171 -27.9689L939.814 -35.6912L937.569 -35.4684L938.197 -37.4583L935.571 -37.357L932.878 -40.1837L929.883 -39.9827L928.126 -41.8262L918.067 -40.8162L905.191 -32.7972C902.25 -29.3336 899.711 -26.284 897.03 -23.2438C895.422 -21.6794 893.9 -20.0892 892.473 -18.4799C891.53 -16.9176 890.787 -15.3618 890.257 -13.8364C889.874 -12.8386 889.351 -11.8234 888.695 -10.8073C887.915 -9.90698 887.006 -9.03363 885.991 -8.20951L886.986 -7.16493C886.17 -5.02485 883.755 -2.54185 885.942 -1.29245L883.15 0.446312C880.759 5.39432 878.57 10.4134 875.788 15.5075C874.255 18.2895 875.35 20.4144 873.531 23.2442C871.812 26.0488 870.449 28.8439 869.463 31.5875C868.851 33.1758 869.655 34.4376 868.524 36.3169C867.452 37.7701 866.941 39.2288 867.059 40.4931C867.353 41.7782 865.911 43.8186 865.194 45.5053C864.617 47.0364 863.877 48.589 862.979 50.1488C861.939 51.7753 863.824 52.4293 862.456 54.1297C860.444 56.6878 862.69 58.4876 860.351 61.1195C858.012 63.7512 860.259 64.9952 858.742 67.3757C857.255 69.9185 856.008 72.452 855.009 74.9555C854.906 75.7949 854.985 76.5813 855.242 77.2907L851.422 84.9892C852.862 87.1277 849.694 90.1451 849.124 92.7517C850.082 93.1996 849.555 94.1803 849.19 95.191C849.103 96.0415 849.209 96.8339 849.504 97.5413L847.42 98.839C846.417 100.573 847.816 101.693 846.44 103.595C845.566 104.863 844.94 106.134 844.584 107.361C844.468 107.727 845.534 108.01 845.443 108.262C843.272 111.768 844.174 114.666 842.515 118.082C843.569 119.188 841.898 120.848 841.314 122.257C840.73 123.664 842.569 123.922 841.265 125.551C839.961 127.179 840.818 128.636 840.265 130.285L838.724 131.246C837.306 133.7 836.514 136.111 836.391 138.344C836.473 140.382 833.227 143.318 834.45 145.298C834.684 145.543 833.943 146.299 833.802 146.778C832.858 150.107 828.785 153.916 830.132 156.863L825.421 166.553L825.371 171.937C824.161 173.245 822.715 174.864 821.216 176.287C821.449 177.088 822.465 177.598 819.985 178.13C820.356 177.515 820.767 176.9 821.216 176.287C820.631 175.673 819.928 174.935 819.03 173.992L821.404 170.491C820.603 169.162 820.045 168.368 819.715 167.464C819.578 167.32 820.478 166.662 820.922 166.222L818.854 164.051C820.469 157.105 818.173 151.42 821.49 144.099L819.812 142.338L820.795 140.094L818.746 137.943L821.663 133.548L817.253 133.031C815.623 131.863 814.485 130.36 813.892 128.597L817.243 128.142C818.305 126.469 816.235 126.387 816.234 124.854L816.932 123.146L814.98 121.098L817.688 118.922C820.144 118.992 820.208 120.453 821.298 121.178C821.631 120.97 822.173 120.633 822.214 120.607C822.437 118.053 822.64 115.479 822.718 112.982C822.543 112.798 821.878 112.657 821.418 112.454C819.616 113.838 819.786 115.201 818.754 116.626C816.843 116.642 816.561 116.067 817.246 113.649L815.587 111.909C816.652 110.657 816.132 109.414 818.13 108.236L818.387 104.812L812.015 105.093C811.097 102.459 811.901 99.1559 814.271 95.8224C817.837 95.6987 820.955 96.2671 823.351 97.4783C824.141 96.981 824.788 96.3722 825.194 95.7424C825.6 95.1134 825.743 94.4973 825.602 93.9871C824.753 92.3297 826.317 90.2777 827.017 88.5038L825.261 86.6604L826.2 84.5089C823.496 84.5284 819.863 85.9424 818.937 83.1579C816.791 85.5058 815.706 86.7364 814.349 88.1691C814.56 89.0172 816.651 89.052 814.9 90.6981C812.876 89.9672 812.876 89.9672 814.349 88.1691L812.964 86.7146C813.466 84.8024 815.569 82.4804 814.203 81.0469C814.211 80.8461 815.092 80.1673 815.514 79.774ZM806.747 170.089C806.692 169.405 803.637 170.1 805.889 168.143C807.338 167.992 807.825 168.503 806.669 170.007L806.747 170.089ZM820.695 90.0909C820.282 90.1895 819.888 90.2146 819.552 90.1653C819.215 90.1152 818.946 89.9915 818.769 89.8063C818.592 89.6203 818.513 89.3786 818.539 89.1021C818.566 88.8264 818.696 88.5256 818.919 88.2273C819.307 88.1456 819.673 88.1295 819.985 88.182C820.298 88.2346 820.548 88.3534 820.715 88.5289C820.882 88.7035 820.96 88.9299 820.943 89.1878C820.926 89.4457 820.814 89.7271 820.617 90.0092L820.695 90.0909ZM820.178 93.9386L820.574 93.1697C821.002 93.2093 821.395 93.2934 821.743 93.4203C821.743 93.4203 821.563 93.8594 821.452 94.0914L820.178 93.9386ZM813.202 137.838L812.203 137.905C812.486 137.531 812.829 137.164 813.222 136.814C813.222 136.814 813.814 136.739 814.12 136.712L813.202 137.838ZM815.62 141.979L815.223 142.748C814.782 142.708 814.382 142.617 814.035 142.476C814.035 142.476 814.215 142.038 814.326 141.806L815.62 141.979ZM917.604 289.168C917.854 289.013 918.486 288.978 918.522 289.086C918.592 289.394 918.578 289.732 918.483 290.09C918.177 290.117 917.643 290.254 917.606 290.146C917.543 289.842 917.543 289.513 917.604 289.168Z" fill="#84A17D"/>
<path d="M532.9 -259.1L531.44 -257.636L534.035 -254.911L533.128 -252.519L540.134 -245.166L539.168 -242.834L541.763 -240.11C540.093 -237.96 542.16 -236.767 540.676 -234.7C542.166 -233.834 541.586 -232.003 541.716 -230.681C542.338 -229.221 543.403 -227.985 544.865 -227.028L543.823 -224.846L546.497 -222.04L545.544 -220.043L549.018 -216.397L548.052 -214.065L553.34 -208.515L552.316 -206.245L563.049 -194.979L562.102 -193.116L566.57 -188.425L565.485 -186.15L569.934 -181.48L568.829 -179.225L573.259 -174.575L572.154 -172.32L576.681 -167.568L575.709 -165.592L578.324 -162.847L577.319 -160.557L579.114 -158.673L578.349 -157.315C578.156 -155.497 580.043 -154.91 580.663 -153.632L579.735 -151.749L583.307 -148L582.179 -145.699C582.882 -144.961 584.683 -144.255 584.56 -143.2C584.486 -141.485 584.793 -139.896 585.471 -138.48C585.452 -136.895 585.224 -135.246 584.789 -133.552L588.106 -130.069L587.101 -127.779L588.702 -126.1L587.761 -123.882C588.658 -122.939 590.379 -122.249 588.489 -120.19L591.748 -116.769L590.937 -110.651L593.26 -108.214L592.274 -105.903L594.889 -103.158L593.865 -100.888L595.64 -99.0241L594.69 -97.0942L597.187 -93.9168L596.215 -91.9408C597.17 -91.2115 597.968 -90.3747 598.595 -89.4417C599.104 -88.4197 597.736 -86.7194 598.917 -85.7581C599.503 -85.1436 598.627 -83.5541 599.16 -82.6461C599.694 -81.7374 600.936 -80.7819 599.524 -78.9887L601.28 -77.1452L600.276 -74.8548L602.012 -73.0318L601.007 -70.7414L603.525 -68.0991C603.226 -67.2278 602.43 -66.112 602.806 -65.8566C604.169 -64.8447 603.591 -63.0817 603.68 -61.7337C603.769 -60.3859 604.969 -59.8929 604.394 -58.1968C603.819 -56.5006 605.717 -56.181 606.568 -55.079L605.712 -52.9799L609.206 -49.3134L608.181 -47.0435L614.426 -40.4888L620.639 -42.4L621.706 -44.2068L623.311 -44.1946C625.201 -43.6745 620.594 -39.7287 625.327 -40.685L626.169 -42.4496L632.961 -46.6796L637.384 -51.6537L636.755 -53.22L639.137 -55.389L642.518 -61.737C646.166 -63.5523 644.316 -66.1208 647.806 -68.033C647.962 -68.1324 648.1 -68.2459 648.213 -68.3668C648.326 -68.4877 648.412 -68.6134 648.464 -68.7364C649.569 -70.9913 650.679 -73.3799 651.821 -75.5268C652.963 -77.6737 656.786 -79.7936 655.842 -81.6209C657.993 -83.6131 661.165 -84.6747 661.266 -86.7291C664.142 -86.9854 667.375 -89.0972 669.968 -88.8846L675.787 -86.4704L679.648 -86.4599L678.595 -83.4538L686.557 -75.0967L685.606 -73.167L689.178 -69.4185L688.05 -67.1172C688.578 -66.3601 689.231 -65.6748 690.002 -65.0688C691.191 -64.3083 689.278 -62.6926 689.995 -61.8009C690.712 -60.9091 691.478 -60.2441 692.297 -59.3838L691.418 -57.1713L693.994 -54.4675L692.989 -52.1772L694.725 -50.3541L693.992 -48.7549C693.825 -47.1174 695.693 -46.5509 696.375 -45.2782L695.582 -43.7403C695.235 -42.1533 697.319 -41.9173 697.345 -40.0081C695.689 -37.7041 699.018 -37.068 699.489 -35.1096C696.738 -32.3521 702.613 -32.3881 699.209 -29.5499L701.98 -26.6413L700.994 -24.3304L702.712 -22.528L701.707 -20.2376L705.024 -16.7554C704.615 -15.0582 704.393 -13.4037 704.362 -11.8062C704.604 -10.2275 705.944 -9.16916 705.212 -7.08099C704.93 -6.12225 706.656 -5.56522 707.495 -4.68445L706.657 -2.49789L709.213 0.185425L708.228 2.49615L710.843 5.24094L709.818 7.51077L711.672 9.45676L710.667 11.7471L712.345 13.5087L711.419 15.8809C714.87 16.995 712.517 21.0062 714.599 22.8428C712.749 25.431 715.556 25.869 716.352 27.3316L715.453 29.5236L717.151 31.3056L716.146 33.596L717.902 35.4395L716.974 37.3228L719.609 40.088L718.503 42.3429L722.075 46.0914L720.928 48.3721L724.499 52.1206L723.546 54.1173L726.239 56.944L728.926 56.8372L730.663 58.6603L743.662 57.3209C745.415 55.1192 749.436 57.2494 750.689 53.8255C749.809 53.4596 747.839 54.4581 747.451 53.4926C744.965 54.1593 744.965 54.1593 744.628 52.4112C747.043 51.4619 746.551 53.1062 747.451 53.4926L749.97 50.4224L753.637 48.1387L753.234 45.9742C754.486 44.6398 756.163 42.8451 757.858 41.071C757.858 41.071 758.4 40.7336 759.12 40.5137L761.075 41.4504L764.372 40.3111L765.337 36.4463C764.05 35.5833 760.344 36.2923 759.919 34.1742L755.936 35.7082C755.936 35.7082 755.474 35.5716 755.624 35.3804L763.127 19.8398C763.127 19.8398 763.752 19.4506 764.044 19.2689C763.608 19.0435 763.294 18.7259 763.121 18.3355C762.947 17.945 762.917 17.4901 763.034 16.9986C763.15 16.5071 763.41 15.9896 763.798 15.4779C764.185 14.9662 764.692 14.4711 765.287 14.0233L763.511 12.1593C761.267 13.9157 761.282 15.6037 760.379 17.3736C759.476 19.1436 758.163 20.4834 759.756 21.3191L756.418 28.13L751.483 38.3511L743.13 47.6329L737.779 46.7551L736.061 44.9526L737.011 43.0229L733.44 39.2744L734.437 37.1848L731.198 33.7845L732.047 27.7072L729.705 25.2492L730.669 22.9848L727.837 23.149C726.912 20.6384 727.524 17.5142 729.568 14.3034L725.737 14.0456L726.526 12.0858L723.911 9.34094L724.872 7.14355L722.547 7.35132L723.123 -1.59113L719.884 -4.99133C720.956 -5.8873 721.733 -6.53473 722.491 -7.20261C723.241 -9.20337 720.54 -9.25098 720.588 -11.5003L721.178 -12.5532C720.904 -14.3736 718.641 -15.2161 717.733 -16.9354L718.502 -18.9157L716.361 -18.7242C715.797 -19.8741 717.771 -21.4954 717.378 -23.3718L714.372 -26.5262L715.358 -28.837L710.909 -33.5073L714.058 -39.679L709.687 -44.2673L710.516 -46.7419L708.095 -49.7707L709.023 -51.6541L704.964 -55.9147L705.345 -62.4836C705.822 -64.2422 705.353 -65.7529 704.029 -66.7224C703.288 -67.5009 702.546 -68.2792 701.804 -69.0576L702.283 -74.4794L700.046 -74.4574C699.039 -74.9169 698.47 -75.711 698.428 -76.7133C699.206 -77.3607 699.964 -78.0285 700.741 -78.6759C700.737 -79.098 700.942 -79.6497 700.708 -79.8955C697.878 -82.866 695.049 -85.8357 692.239 -88.7852L693.18 -91.0029C693.074 -92.4388 690.761 -91.5203 689.676 -91.8235L690.342 -93.7728L687.669 -93.5117L681.405 -100.087L678.794 -99.831L676.218 -102.535C672.918 -101.818 672.105 -104.413 668.217 -102.709C666.091 -101.875 663.959 -99.8617 661.413 -100.234L647.662 -91.6699C647.45 -89.3842 644.267 -87.0105 642.912 -84.5995C641.557 -82.1893 640.416 -79.5532 639.178 -77.0198C637.94 -74.4864 636.927 -71.9954 635.425 -69.4605C633.922 -66.9258 631.759 -64.1096 629.54 -60.9328C628.29 -60.1543 626.948 -59.612 626.085 -60.9353L626.923 -63.1217L623.469 -66.7473L624.455 -69.0581L622.738 -70.8606L623.742 -73.151L621.967 -75.0151L622.866 -77.207C621.401 -80.886 620.659 -84.8905 620.655 -89.1458L618.293 -91.6238C618.37 -93.2263 618.598 -94.8716 618.975 -96.5525C619.553 -98.3159 616.774 -98.4452 618.041 -100.67C619.307 -102.895 616.391 -103.168 617.396 -105.458C617.98 -106.866 614.57 -106.961 615.653 -109.17C616.736 -111.378 614.243 -111.555 613.684 -112.839C614.07 -113.692 614.192 -114.506 614.04 -115.221C613.889 -115.936 613.468 -116.531 612.81 -116.963L613.732 -119.201L611.995 -121.024L613 -123.314L610.365 -126.079L611.16 -127.684C610.82 -129.059 609.93 -130.184 608.566 -130.964L605.535 -130.871L608.473 -133.223L609.849 -136.169L607.273 -138.872L608.258 -141.183L606.541 -142.986L607.546 -145.277L604.911 -148.042L605.82 -149.945L604.243 -152.227L604.971 -154.182C603.937 -155.267 602.388 -156.196 602.842 -157.392C603.154 -158.124 603.23 -158.817 603.063 -159.417C602.896 -160.016 602.491 -160.503 601.88 -160.84C600.429 -161.667 602.128 -163.508 601.495 -164.451C600.861 -165.395 599.719 -166.315 601.131 -168.108L598.477 -170.894L599.501 -173.164L597.725 -175.028L598.695 -176.937L595.124 -180.686L596.209 -182.961L592.658 -186.689L593.743 -188.964L589.294 -193.634L590.288 -195.657L584.122 -202.13L585.088 -204.461L582.551 -207.124L583.533 -209.368L577.308 -215.902L578.039 -217.435C578.131 -217.687 578.347 -218.017 578.249 -218.12L568.492 -228.362L569.42 -230.245L564.795 -235.1L561.602 -235.037L562.15 -238.642L558.581 -238.834L556.942 -240.555L557.9 -242.685L550.796 -250.141L551.799 -252.365C550.743 -252.915 551.004 -254.383 548.777 -254.073L547.51 -251.848L540.771 -251.535L545.322 -256.654L548.615 -257.17C549.8 -258.365 548.92 -258.732 548.143 -259.129C546.105 -258.969 544.865 -257.413 543.208 -256.642L540.186 -256.262L540.125 -253.188C537.319 -253.138 537.454 -255.017 536.025 -255.89L540.065 -260.43L543.016 -259.493C543.33 -260.911 542.987 -262.149 542.038 -263.029L544.559 -265.121C545.299 -266.366 544.797 -267.032 542.692 -266.733L541.742 -264.803L538.067 -262.318L536.3 -259.782C534.889 -259.033 533.514 -258.177 532.9 -259.1ZM753.608 41.1397C753.364 40.1168 752.514 39.5037 754.828 39.0746C754.531 39.6274 754.117 40.1826 753.605 40.7176C753.776 40.8176 753.885 40.9629 753.922 41.1401C753.959 41.3173 753.922 41.5211 753.815 41.7332C753.708 41.9454 753.534 42.1593 753.309 42.3558C753.084 42.5522 752.814 42.7252 752.524 42.8591C751.429 44.6375 750.17 46.4142 748.758 48.1746C747.884 48.5431 747.002 48.8745 746.117 49.1663L747.649 45.8953L752.524 42.8591C751.878 42.25 752.252 41.5276 753.608 41.1397Z" fill="#84A17D"/>
<path d="M818.671 63.5754L817.691 65.7523L819.486 67.6368L826.419 65.5058C830.391 62.706 828.02 60.984 829.025 58.6936C829.471 57.698 828.14 56.9279 826.937 56.5019C824.645 57.9293 826.429 58.0589 826.444 58.7021C826.459 59.3453 825.845 59.4669 825.204 60.2577C823.223 58.9455 822.218 57.1237 820.499 55.877C817.022 58.4993 820.177 59.929 817.486 62.1921C817.233 62.4147 818.242 63.1248 818.671 63.5754Z" fill="#84A17D"/>
<path d="M817.847 108.149C818.894 108.901 819.044 110.243 820.867 110.414C821.075 110.284 821.526 110.199 821.533 109.998L824.166 105.096L822.214 103.047L824.473 98.8669L823.107 97.4326C820.391 98.9542 817.858 100.697 815.607 102.593L818.758 102.556C818.722 103.982 822.099 103.902 820.741 106.38L817.847 108.149Z" fill="#84A17D"/>
<path d="M824.91 21.8977L827.832 24.0593L830.675 22.5827L830.949 18.2016C830.571 17.3964 829.799 16.8035 828.72 16.4893L826.531 18.9299L823.78 18.0643L821.655 19.3878L821.217 23.8057L824.91 21.8977Z" fill="#84A17D"/>
<path d="M816.304 -10.2744C815.86 -9.83458 814.935 -9.06294 815.033 -8.96058C816.568 -7.69742 812.817 -4.31714 816.893 -4.08121L814.095 0.369797L817.471 3.9134C817.916 3.47361 818.71 2.91362 818.701 2.62545C818.745 0.998933 818.5 -0.512785 818.463 -2.15431C818.287 -2.33867 819.29 -3.02843 819.734 -3.46821L817.529 -5.78286L818.509 -7.95983L816.304 -10.2744Z" fill="#84A17D"/>
<path d="M817.944 32.0771C818.381 29.2151 818.374 26.4743 817.921 23.8996C817.824 23.7972 817.332 23.9078 817.048 23.8887C814.098 26.0194 815.673 27.3234 815.301 29.0237C814.929 30.724 815.045 31.8917 814.899 33.5496L817.944 32.0771Z" fill="#84A17D"/>
<path d="M766.002 18.0497L768.127 16.7263L770.629 10.9902L767.57 11.2637L765.287 14.0236L766.418 15.2119L766.002 18.0497Z" fill="#84A17D"/>
<path d="M815.845 42.4918C813.486 45.1032 814.755 46.9235 814.262 49.1237C814.148 49.4227 815.019 49.5005 815.518 49.7449C817.351 48.6031 816.887 47.4887 817.764 46.3879C815.343 45.9375 819.492 42.766 816.843 42.4248C816.523 42.4239 816.189 42.4463 815.845 42.4918Z" fill="#84A17D"/>
<path d="M814.367 65.5391C810.684 68.2242 813.177 69.9352 811.825 72.2788C811.584 72.7227 812.586 73.0777 813.347 73.8766L814.841 71.5425C816.07 69.7656 814.098 68.7415 815.594 66.8964C815.852 66.5399 814.796 65.9896 814.367 65.5391Z" fill="#84A17D"/>
<path d="M814.671 59.376C814.08 60.0317 813.538 60.6964 813.048 61.3659C812.709 62.012 812.432 62.6534 812.221 63.2847L814.367 65.5379C814.867 65.2265 815.275 64.6788 815.658 64.2445C816.041 63.8102 816.809 62.8746 817.364 62.2027L814.671 59.376Z" fill="#84A17D"/>
<path d="M816.86 16.2383C816.246 17.3263 815.926 18.3918 815.919 19.3678C815.912 20.3438 816.219 21.2092 816.819 21.9098C818.569 20.82 818.289 19.6892 819.085 18.5734L816.86 16.2383Z" fill="#84A17D"/>
<path d="M814.769 59.4796C816.686 58.2859 816.246 57.0582 817.295 55.7197L815.855 54.626C813.938 55.8197 814.177 56.9764 813.422 58.0663L814.769 59.4796Z" fill="#84A17D"/>
<path d="M816.86 16.2382C818.777 15.0445 818.357 13.8375 819.406 12.499L817.965 11.4053C816.048 12.599 816.287 13.7558 815.533 14.8456L816.86 16.2382Z" fill="#84A17D"/>
<path d="M822.837 9.5479C824.753 8.35422 824.334 7.14702 825.363 5.78809L821.112 5.8567C820.455 8.09372 822.228 8.49094 822.837 9.5479Z" fill="#84A17D"/>
<path d="M771.453 23.6299C769.632 24.993 769.339 26.2194 769.154 27.8363L772.938 25.6756L771.453 23.6299Z" fill="#84A17D"/>
<path d="M829.992 -2.38379C828.56 -0.611053 828.56 -0.611103 830.565 0.0988863C832.336 -1.52638 830.224 -1.58217 829.992 -2.38379Z" fill="#84A17D"/>
<path d="M829.549 6.83524C830.98 5.06248 830.98 5.06253 828.976 4.35254C827.244 6.01881 829.316 6.03362 829.549 6.83524Z" fill="#84A17D"/>
<path d="M776.164 15.4736C773.995 15.8453 772.873 16.479 772.236 17.6918C774.003 18.2229 774.98 17.1576 776.164 15.4736Z" fill="#84A17D"/>
<path d="M829.524 6.45996L828.196 8.69015C830.598 8.07543 829.79 7.4364 829.524 6.45996Z" fill="#84A17D"/>
<path d="M822.733 0.864453L821.795 1.9707C822.004 1.84094 822.546 1.99246 822.693 1.86818C823.093 1.50861 823.449 1.13359 823.754 0.750977L822.733 0.864453Z" fill="#84A17D"/>
<path d="M828.672 13.5826L827.734 14.6889C828.04 14.6616 828.485 14.7106 828.633 14.5864C829.025 14.237 829.368 13.8697 829.651 13.4951L828.672 13.5826Z" fill="#84A17D"/>
<path d="M822.79 9.15137L821.612 11.1905C823.676 10.9172 822.973 10.1798 822.79 9.15137Z" fill="#84A17D"/>
<path d="M817.423 3.51855L816.246 5.55764C818.309 5.28433 817.626 4.56736 817.423 3.51855Z" fill="#84A17D"/>
<path d="M815.953 8.38317L817.227 8.53598C817.338 8.30385 817.637 7.92145 817.559 7.83951C817.182 7.73558 816.777 7.66028 816.349 7.61426L815.953 8.38317Z" fill="#84A17D"/>
<path d="M822.123 25.5254L821.144 25.6129C821.086 25.9697 821.079 26.3127 821.124 26.6372C821.124 26.6372 821.716 26.562 822.042 26.5551L822.123 25.5254Z" fill="#84A17D"/>
<path d="M828.894 37.3018L828.517 38.0913C829.037 37.9658 829.564 37.7914 830.082 37.5735C830.082 37.5735 830.323 37.1297 830.434 36.8975L828.894 37.3018Z" fill="#84A17D"/>
<path d="M829.191 40.1193L828.253 41.2256C828.503 41.0699 829.046 41.2214 829.193 41.0971C829.586 40.7477 829.929 40.3804 830.211 40.0059L829.191 40.1193Z" fill="#84A17D"/>
<path d="M822.215 41.7871L821.195 41.9005C821.136 42.2573 821.13 42.6003 821.175 42.9248C821.175 42.9248 821.767 42.8497 822.092 42.8428L822.215 41.7871Z" fill="#84A17D"/>
<path d="M823.826 46.7568L822.805 46.8704C822.743 47.2153 822.744 47.5436 822.807 47.8481C822.807 47.8481 823.377 47.8194 823.683 47.7921L823.826 46.7568Z" fill="#84A17D"/>
<path d="M826.228 71.9253L827.448 69.8604C825.193 70.3509 826.042 70.9639 826.228 71.9253Z" fill="#84A17D"/>
<path d="M826.237 71.1689L825.018 73.234C827.331 72.805 826.523 72.1658 826.237 71.1689Z" fill="#84A17D"/>
<path d="M764.578 10.418L765.756 8.37891C763.484 8.78195 764.233 9.35963 764.578 10.418Z" fill="#84A17D"/>
<path d="M826.179 75.2188L825.181 75.2858C825.123 75.6425 825.116 75.9856 825.161 76.31C825.161 76.31 825.773 76.2553 826.079 76.228L826.179 75.2188Z" fill="#84A17D"/>
<path d="M772.435 21.941L773.654 19.876C771.341 20.305 772.191 20.9181 772.435 21.941Z" fill="#84A17D"/>
<path d="M763.511 12.159C764.845 11.3286 765.197 10.6529 764.531 10.0234C763.178 10.8334 762.803 11.5555 763.511 12.159Z" fill="#84A17D"/>
<path d="M820.008 71.9477L818.734 71.7949C818.832 71.8974 818.324 72.4095 818.443 72.4654C818.791 72.5925 819.184 72.677 819.612 72.7167L820.008 71.9477Z" fill="#84A17D"/>
<path d="M772.43 21.5195C771.055 22.3759 770.703 23.0519 771.369 23.6815C772.722 22.8715 773.096 22.1491 772.43 21.5195Z" fill="#84A17D"/>
<path d="M764.044 19.2693C764.492 19.7404 764.883 20.1505 766.057 19.2231C766.391 19.0155 766.047 18.4459 766.002 18.0498L764.044 19.2693Z" fill="#84A17D"/>
<path d="M817.709 79.7109L820.293 79.6355C820.846 77.9857 819.404 78.9814 817.709 79.7109Z" fill="#84A17D"/>
<path d="M764.846 23.6651L766.043 21.6465C763.73 22.0755 764.58 22.6887 764.846 23.6651Z" fill="#84A17D"/>
<path d="M818.349 79.4745C817.745 78.8395 816.849 78.875 815.513 79.7724C816.076 80.4334 816.869 80.4293 818.349 79.4745Z" fill="#84A17D"/>
<path d="M814.349 75.2764C813.824 75.3948 813.291 75.5621 812.764 75.7735C812.764 75.7735 812.481 76.2434 812.39 76.496C812.926 76.3418 813.463 76.1601 813.997 75.9524C813.997 75.9524 814.238 75.5086 814.349 75.2764Z" fill="#84A17D"/>
<path d="M764.775 22.8936L763.597 24.9326C765.946 24.6115 765.041 23.87 764.775 22.8936Z" fill="#84A17D"/>
<path d="M767.097 31.0427L766.742 31.7856C767.262 31.6601 767.789 31.4858 768.307 31.2679C768.307 31.2679 768.548 30.824 768.659 30.5918L767.097 31.0427Z" fill="#84A17D"/>
<path d="M762.15 28.1505L761.212 29.2568C761.518 29.2295 762.005 29.2527 762.111 29.1544C762.51 28.7948 762.866 28.4197 763.171 28.0371L762.15 28.1505Z" fill="#84A17D"/>
<path d="M819.912 123.279C821.245 122.448 821.597 121.772 820.931 121.143C819.578 121.953 819.204 122.676 819.912 123.279Z" fill="#84A17D"/>
<path d="M819.867 122.883L818.648 124.948C820.961 124.518 820.153 123.88 819.867 122.883Z" fill="#84A17D"/>
<path d="M820.679 128.546L821.075 127.777C820.555 127.903 820.028 128.077 819.51 128.296C819.51 128.296 819.269 128.739 819.117 128.997L820.679 128.546Z" fill="#84A17D"/>
<path d="M805.286 133.922C804.328 134.519 803.495 135.038 804.33 135.497C804.486 135.661 805.545 135.099 806.184 134.865L805.286 133.922Z" fill="#84A17D"/>
<path d="M819.899 166.401L822.525 166.3C823.036 164.676 821.594 165.671 819.899 166.401Z" fill="#84A17D"/>
<path d="M213.484 301.844C214.404 301.747 215.338 301.135 216.313 302.19C216.172 302.719 216.172 303.32 215.934 303.645C214.139 305.72 212.42 307.874 210.67 310.03C208.473 312.252 206.128 314.232 203.656 315.955L201.799 320.052L194.877 325.752C194.658 325.84 194.42 325.865 194.18 325.826L192.769 325.674C192.244 324.614 191.751 323.551 191.219 322.449C189.757 324.188 187.349 324.656 186.905 327.918L189.621 328.963C189.505 329.446 189.511 330.089 189.266 330.372C188.07 331.569 186.944 332.876 185.896 334.285C185.092 335.634 184.056 336.707 182.854 337.434C181.439 338.222 180.277 339.547 179.501 341.26C178.678 343.361 176.567 343.069 175.945 345.021C175.323 346.973 174.237 345.629 173.39 345.975C173.38 345.098 173.237 344.21 172.97 343.36C172.685 342.79 171.94 342.568 171.5 342.442C171.082 341.242 171.06 339.701 169.875 341.155C170.391 341.645 170.935 342.076 171.5 342.442C171.646 343.67 171.842 344.894 172.089 346.111C170.907 345.979 170.872 347.569 170.251 348.32C169.63 349.071 169.588 350.619 168.374 350.489C167.917 349.251 168.584 347.38 166.947 346.823C166.701 349.507 166.701 349.507 168.374 350.489C168.736 351.738 168.271 352.258 167.55 352.591L166.279 353.111L164.273 356.881L159.769 357.353C159.219 358.641 158.597 359.866 157.907 361.022C157.214 361.668 156.474 362.233 155.696 362.712C152.192 365.996 148.332 368.673 145.125 372.397C143.976 373.677 142.126 372.198 141.371 374.121C140.615 376.045 138.389 375.635 137.898 378.002C137.407 380.369 135.648 379.653 134.818 381.112C133.988 382.572 132.042 382.905 131.384 385.032C130.726 387.159 128.422 386.673 127.853 388.747C123.841 388.869 122.146 393.378 117.624 395.738L113.184 396.204L111.891 398.398L101.648 399.473L99.7372 397.615L96.883 397.915C96.4476 397.556 96.1147 397.007 95.9545 396.384C95.7943 395.76 95.8193 395.112 96.0243 394.574C99.7709 379.943 100.254 378.735 103.93 372.303C103.799 371.688 103.7 371.068 103.632 370.447C103.585 370.152 103.875 369.95 104.149 369.45L106.781 369.173C107.003 369.151 107.146 368.835 107.316 368.689C107.419 367.52 107.553 366.348 107.631 365.225L109.121 365.068L114.198 356.517C117.145 355.993 116.784 350.928 119.6 349.989C119.825 349.923 120.059 349.898 120.298 349.916L122.792 345.366L126.028 339.409C128.384 339.418 128.78 336.461 129.855 334.718C130.929 332.976 131.656 330.67 133.713 330.026C134.474 329.946 134.715 328.034 135.354 327.194C137.077 324.869 137.619 321.211 140.202 319.825C142.785 318.438 142.432 313.63 145.42 313.359L152.031 300.701L153.712 300.525C155.349 297.267 157.705 294.78 160.523 293.335L164.548 285.065L165.753 284.939C167.708 282.246 168.494 278.304 170.857 276.555C173.221 274.806 173.898 271.39 175.621 269.065C175.777 268.835 175.83 268.358 176.02 268.337C178.177 268.111 178.48 264.777 179.951 263.894C181.121 263.058 182.131 261.919 182.927 260.537C184.774 257.984 185.447 254.14 188.257 252.558C190.505 251.294 190.487 246.364 193.462 246.009L198.927 235.658C202.384 235.295 202.032 229.886 204.986 228.804C207.365 227.955 207.051 222.584 210.243 222.378C211.651 219.3 213.37 216.513 215.36 214.079C217.328 211.604 219.043 208.806 220.471 205.738C222.09 203.167 223.432 200.281 224.929 197.551L229.728 188.471L231.504 188.285C231.545 187.337 231.295 185.776 231.739 185.129C233.793 182.255 233.563 177.605 235.809 174.925L231.187 172.451L227.445 172.843L225.503 170.989L215.355 172.053L214.459 173.906L205.706 174.824L204.558 176.917L200.531 177.34L198.89 179.57L193.466 180.139L191.952 182.357L187.893 182.782L186.473 184.99L182.414 185.416L181.122 187.61L178.299 187.906L177.007 190.1L174.184 190.396L172.871 192.463C171.571 192.6 170.018 192.163 169.224 192.847C167.862 194.278 166.206 195.203 164.4 195.54C162.912 198.526 159.714 198.69 158.317 201.838L155.399 202.145L154.358 204.098L151.228 204.683C150.703 206.84 149.217 206.824 147.269 206.943C146.718 208.427 145.972 209.751 145.06 210.863C144.186 211.641 142.955 211.813 142.501 213.404L138.22 213.853C136.338 216.795 133.37 217.793 131.5 220.604C128.877 219.937 127.761 223.827 124.687 223.163L123.62 227.564L119.656 227.98C118.988 231.052 116.629 232.028 115.036 233.954C114.446 234.702 113.309 234.649 111.993 235.087C109.749 238.697 106.933 241.612 103.697 243.677C101.774 245.083 100.076 246.912 98.6655 249.094C97.6153 250.422 96.4185 251.541 95.105 252.426L90.8778 253.213L90.8281 256.52C90.2144 256.698 89.6164 256.933 89.0383 257.223C88.6598 257.477 88.528 258.262 88.1631 258.6C87.5069 259.09 86.822 259.52 86.1124 259.888L84.305 263.294C83.1423 264.488 80.7399 262.982 80.2217 265.781C77.7524 267.12 75.6413 269.251 74.0614 272.002C73.191 273.247 72.1234 274.233 70.9155 274.905C68.79 276.329 66.8591 278.161 64.9327 279.821C62.6392 281.197 60.7659 283.426 59.5174 286.264C57.3572 287.075 55.5251 288.763 54.2638 291.103C52.9349 293.473 50.4475 294.248 49.569 297.214C47.4065 296.197 47.6686 300.844 45.4993 299.785L42.2451 305.83C39.6632 305.415 38.2345 307.966 36.3559 309.322C34.3306 310.403 32.5534 312.049 31.1342 314.157C29.8392 316.738 27.4718 317.458 26.247 320.074C25.0222 322.689 22.4103 323.092 21.7809 326.202L17.3409 326.669L11.7125 337.208L8.54112 337.541L8.21288 340.921L3.26794 344.869L3.6064 346.979C1.64799 348.133 -0.0882416 349.768 -1.52022 351.805C-2.66342 354.326 -5.20944 354.336 -5.96992 357.032C-6.13562 357.607 -6.41932 358.451 -6.76817 358.488C-9.21012 358.743 -9.3167 362.7 -11.2922 363.251C-13.2678 363.801 -13.0612 366.695 -15.5309 367.984L-15.9115 368.023C-16.8956 370.09 -17.9783 372.065 -19.1542 373.939C-20.3309 375.649 -20.5387 378.372 -22.9083 378.879C-24.3671 379.031 -24.229 382.704 -26.1681 383.08C-28.1073 383.455 -27.8423 387.115 -30.0897 387.779C-31.6733 388.16 -32.9023 390.347 -34.5047 392.017L-36.9784 392.276L-38.2709 394.47L-41.0617 394.763L-42.336 396.869C-44.046 396.663 -45.6121 398.157 -47.3235 396.535C-47.2593 395.328 -45.9747 394.893 -46.6623 393.42C-45.79 393.029 -44.6327 393.208 -45.9137 391.455C-46.2015 392.08 -46.4517 392.736 -46.6623 393.42C-47.3246 393.444 -47.9809 393.513 -48.6286 393.627L-51.2522 390.943L-49.7146 387.866L-48.0755 389.238C-46.5836 387.716 -44.9904 386.359 -43.3095 385.178C-42.3306 384.647 -42.1328 383.468 -41.4415 382.752C-40.7502 382.037 -42.0778 378.788 -39.731 378.542C-38.843 378.448 -38.2144 376.539 -37.4956 375.391C-36.7769 374.244 -34.9738 374.226 -34.4154 372.281C-33.8585 370.716 -33.2159 369.215 -32.4919 367.791L-28.9716 367.421L-28.8111 364.402C-28.005 362.394 -26.9574 360.593 -25.7024 359.059L-21.8416 361.013C-20.3774 359.486 -21.4229 357.795 -21.4602 355.955C-21.2244 355.416 -21.0311 354.409 -20.528 353.928C-18.796 352.591 -17.3552 350.744 -16.3025 348.51C-14.1143 348.28 -13.5508 345.562 -12.4126 343.813C-12.0182 343.257 -11.0578 343.414 -10.6317 342.855C-9.17635 341.073 -8.71027 338.15 -6.56905 337.025C-4.42781 335.9 -4.41375 331.567 -2.00315 330.714C0.407433 329.86 -0.097332 325.711 2.55267 325.948C3.51192 324.566 4.34768 323.041 5.0471 321.397C5.64399 319.491 7.51009 320.067 8.19749 318.322C8.8849 316.578 9.35033 314.857 11.2075 315.176C11.5803 313.079 13.3921 313.317 14.2809 312.024C15.0183 310.581 15.97 309.363 17.0896 308.427C19.2815 307.169 21.2327 305.383 22.853 303.148C24.2838 300.81 26.5607 299.928 27.747 297.274C28.4509 295.464 29.6681 294.134 31.1764 293.526C32.8573 293.349 33.0106 290.889 34.5146 290.817C36.0187 290.745 35.9792 288.691 36.8337 287.787C37.3517 287.272 37.9032 286.813 38.4836 286.412C39.6189 285.651 40.184 283.747 41.7583 283.71C42.8511 281.521 44.2854 279.682 45.9838 278.293C46.9698 277.203 47.4238 275.612 49.0052 275.016C50.5866 274.422 50.4118 271.524 52.2968 270.812C53.4545 270.39 53.8345 267.734 54.9063 266.979C55.9782 266.223 57.0361 265.984 57.37 264.448L60.5414 264.115C61.5616 262.259 62.8328 260.677 64.3043 259.432C65.9428 258.187 67.5338 256.649 69.204 255.401C70.8741 254.154 70.7788 250.947 73.1662 250.954C74.2413 248.611 76.3436 248.048 77.8713 246.516C79.3989 244.983 81.0419 243.567 82.5628 241.992C84.3343 240.877 85.9222 239.38 87.268 237.553C89.2021 237.95 89.3553 235.49 90.3096 234.403C91.1237 233.487 92.008 232.676 92.9522 231.982C94.6515 230.75 96.2572 229.335 97.7547 227.748C99.1191 226.404 100.174 224.535 101.645 223.051C107.31 218.168 112.922 212.948 118.816 208.084C119.968 206.764 121.383 205.866 122.943 205.464C124.084 205.345 125.001 203.619 126.161 202.811C127.321 202.003 128.356 199.407 129.713 199.222C131.528 198.885 133.185 197.929 134.523 196.445C135.928 195.099 137.542 194.131 139.288 193.586C140.834 192.556 142.215 191.196 143.382 189.554C144.874 188.42 146.297 187.154 147.642 185.763C148.959 184.123 151.817 186.054 152.233 182.621C154.817 183.851 155.703 180.328 157.794 179.894C159.83 179.45 161.564 177.998 162.655 175.825C165.434 176.263 166.707 172.141 169.622 172.821L170.896 170.715L173.719 170.419L175.011 168.224L177.834 167.928L178.843 165.978L184.646 165.369L185.277 164.274C185.395 164.005 185.517 163.562 185.676 163.546C187.832 163.32 189.229 161.372 191.107 160.618C192.089 160.386 193.097 160.28 194.12 160.302L195.433 158.234L199.619 157.795L200.911 155.601L205.193 155.152L206.485 152.958L213.652 152.206L214.618 150.389L226.574 149.135L227.966 150.575L229.263 148.81L231.031 150.382L235.408 149.923L237.35 151.778L240.204 151.478L246.434 157.943L248.525 170.975C247.576 175.106 246.704 178.713 245.941 182.396C245.71 184.421 245.395 186.416 244.997 188.37C244.297 190.014 243.462 191.539 242.502 192.92C241.9 193.844 241.383 194.862 240.958 195.955C240.722 197.037 240.601 198.175 240.598 199.338L238.981 199.507C237.686 201.487 237.222 204.623 234.583 204.257L235.037 207.083C232.4 211.948 229.558 216.749 227.07 221.942C225.721 224.784 223.088 225.662 221.899 228.703C220.662 231.668 219.181 234.424 217.48 236.928C216.523 238.401 214.851 238.833 214.007 240.808C213.494 242.449 212.58 243.773 211.391 244.599C210.058 245.34 209.294 247.607 208.325 249.21C207.394 250.622 206.56 252.144 205.831 253.76C205.144 255.504 203.239 254.889 202.719 256.873C201.904 259.832 198.742 259.821 198.094 263.019C197.447 266.217 194.77 265.812 193.76 268.363C192.588 271.011 191.254 273.516 189.771 275.857C189.11 276.509 188.366 277.021 187.564 277.375L183.532 285.002C180.644 285.692 180.245 289.636 178.368 291.805C177.299 291.575 176.814 292.569 176.188 293.493C175.505 294.143 174.738 294.643 173.911 294.975L174.249 297.083C173.441 298.884 171.473 298.876 170.783 301.006C170.292 302.403 169.623 303.66 168.801 304.731C168.563 305.056 167.562 304.647 167.406 304.877C165.875 308.597 162.702 310.131 160.888 313.494C159.176 313.675 158.905 315.804 158.086 317.133C157.268 318.463 155.742 317.593 155.24 319.49C154.738 321.387 152.858 321.928 151.806 323.41L152.056 324.97C150.913 327.515 149.363 329.674 147.497 331.324C145.657 332.717 145.385 336.648 142.789 337.35C142.408 337.39 142.272 338.348 141.952 338.767C139.708 341.661 139.256 346.683 135.727 347.997L130.583 357.542L125.91 361.378C125.622 362.995 125.229 364.965 125.044 366.829C124.178 367.263 123.014 367.041 124.302 368.836C124.578 368.189 124.826 367.519 125.044 366.829C125.995 366.729 127.137 366.609 128.596 366.456L129.98 362.623C131.708 362.141 132.798 361.898 133.822 361.448C134.044 361.424 133.984 360.444 134.054 359.879L137.416 359.527C142.348 353.692 148.944 350.984 153 343.912L155.728 343.626L156.995 341.477L160.325 341.128L162.106 336.353L165.677 338.508C167.851 338.613 169.97 338.202 171.932 337.294L169.96 335.056C170.672 333.266 172.208 334.392 173.549 333.308L174.549 331.702L177.72 331.369L177.709 328.283C175.911 326.928 174.588 327.924 173.183 327.814C173.129 327.477 173.041 326.928 173.034 326.886C175.111 324.953 177.218 323.017 179.346 321.207C179.632 321.177 180.225 321.457 180.728 321.576C180.792 323.585 179.48 324.452 178.963 326.05C180.301 327.153 181.003 326.907 182.633 324.807L185.329 324.524C185.669 323.031 187.124 322.449 186.742 320.473L189.555 317.906L193.815 321.747C196.768 320.409 199.088 317.614 200.328 313.902C197.914 311.776 195.212 310.395 192.459 309.882C192.335 309.078 192.41 308.278 192.674 307.601C192.937 306.924 193.374 306.406 193.92 306.126C195.971 305.44 196.658 303.094 197.715 301.44L200.569 301.14L201.787 299.083C203.682 300.642 205.014 303.719 208.104 302.279C207.568 305.166 207.259 306.657 206.966 308.446C206.075 308.925 204.565 307.754 204.365 309.919C206.434 310.559 206.434 310.559 206.966 308.446L209.217 308.209C210.534 306.57 211.078 303.726 213.298 303.493C213.467 303.347 213.439 302.364 213.484 301.844ZM140.696 370.718C141.332 370.265 142.885 372.504 143.004 369.833C142.112 368.897 141.32 368.981 140.822 370.705L140.696 370.718ZM200.797 306.176C201.004 306.483 201.259 306.725 201.541 306.882C201.823 307.04 202.121 307.106 202.409 307.076C202.696 307.046 202.964 306.92 203.186 306.71C203.409 306.5 203.58 306.212 203.683 305.874C203.481 305.594 203.236 305.374 202.969 305.233C202.702 305.091 202.421 305.032 202.15 305.061C201.879 305.089 201.626 305.204 201.412 305.396C201.199 305.588 201.031 305.851 200.924 306.164L200.797 306.176ZM197.798 309.193L198.191 308.423C197.853 308.206 197.502 308.042 197.145 307.933C197.145 307.933 196.888 308.345 196.764 308.573L197.798 309.193ZM164.337 344.223L164.984 344.841C165.112 344.415 165.191 343.959 165.219 343.488C165.219 343.488 164.865 343.095 164.673 342.901L164.337 344.223ZM159.006 345.768L158.614 346.539C158.961 346.764 159.323 346.927 159.692 347.026C159.692 347.026 159.948 346.613 160.073 346.386L159.006 345.768ZM-41.8365 391.542C-41.8772 391.289 -42.2937 390.904 -42.4138 390.959C-42.7316 391.137 -43.0186 391.385 -43.2637 391.692C-43.0713 391.886 -42.8132 392.288 -42.6931 392.233C-42.3821 392.053 -42.0945 391.821 -41.8365 391.542Z" fill="#416262"/>
<path d="M709.695 223.795L709.446 225.665L705.229 226.107L703.778 228.318L692.392 229.512L691.036 231.713L686.819 232.156C686.119 234.63 683.614 234.293 682.856 236.602C681.045 236.364 679.854 237.99 678.606 238.849C676.889 239.527 675.055 239.792 673.185 239.633L672.013 241.771L667.668 242.227L666.595 244.184L660.95 244.776L659.594 246.976L651 247.879L649.739 250.069L632.297 251.899L631.337 253.758L624.075 254.52L622.853 256.75L615.622 257.508L614.432 259.735L607.233 260.49L606.042 262.716L598.685 263.488L597.644 265.441L593.394 265.887L592.102 268.081L589.184 268.387L588.538 269.784C587.085 271.18 585.237 270.516 583.68 271.066L582.689 272.928L576.886 273.537L575.67 275.809C574.529 275.928 572.638 275.398 571.801 276.214C570.354 277.468 568.747 278.418 567.029 279.031C565.656 280.163 564.376 281.459 563.201 282.906L557.81 283.472L556.517 285.666L553.917 285.938L552.643 288.045C551.184 288.198 549.363 287.703 548.899 290.239L543.603 290.794L538.825 295.584L535.051 295.98L533.727 298.178L529.478 298.623L528.217 300.814L525.331 301.117L524.315 303.025L519.771 303.845L518.73 305.797C517.416 305.766 516.121 305.902 514.861 306.204C513.608 306.635 513.088 308.62 511.412 308.624C510.46 308.724 509.689 310.348 508.518 310.685C507.347 311.022 505.632 310.989 505.062 313.063L502.208 313.363L500.916 315.557L498.093 315.853L496.801 318.048L492.71 318.476C492.159 319.264 491.746 320.507 491.256 320.473C489.408 320.409 488.275 321.987 487.033 322.889C485.791 323.79 484.511 323.453 483.434 324.981C482.358 326.509 480.736 325.651 479.171 325.944L477.94 327.916L472.263 328.512L471.002 330.703L460.854 331.768L458.132 326.864L458.958 324.977L457.812 324.068C456.021 323.355 455.827 328.779 453.317 325.397L454.265 323.668L453.162 316.794L454.384 310.748L456.199 310L456.412 307.104L459.573 300.682C458.581 297.313 462.135 296.555 461.34 293.207C461.317 293.048 461.318 292.888 461.344 292.739C461.37 292.588 461.42 292.451 461.49 292.334C462.681 290.108 463.985 287.784 465.055 285.613C466.126 283.443 465.276 279.758 467.542 279.005C467.763 276.366 466.449 273.803 468.173 272.292C466.365 270.467 465.925 267.124 463.905 265.793L457.68 264.173L454.94 261.973L453.056 264.701L440.117 266.059L439.101 267.967L433.298 268.576L432.082 270.848C431.047 271.08 429.986 271.192 428.911 271.18C427.405 271.038 427.344 273.274 426.058 273.495C424.771 273.715 423.647 273.748 422.316 273.888L421.003 275.955L416.817 276.394L415.524 278.588L412.702 278.884L411.822 280.435C410.507 281.687 408.691 281.02 407.096 281.53L406.311 283.071C405.169 284.392 403.489 283.367 401.801 284.702C400.956 287.278 398.047 285.825 396.001 286.94C395.534 290.463 391.411 287.078 391.336 291.032L386.833 291.504L385.509 293.702L382.718 293.994L381.426 296.189L376.034 296.754C374.839 298.188 373.549 299.485 372.175 300.633C370.622 301.611 368.749 301.593 367.441 303.488C366.802 304.327 365.094 303.735 363.731 303.878L362.411 305.903L358.256 306.339L356.932 308.535L352.683 308.982L351.422 311.173L348.409 311.489L347.117 313.682L344.389 313.969L342.97 316.176C339.555 314.991 337.711 319.172 334.633 319.281C333.677 322.169 331.309 320.873 329.467 321.452L328.186 323.516L325.427 323.806L324.134 326L321.28 326.299L320.289 328.161L316.008 328.611L314.817 330.837L309.014 331.446L307.83 333.714L302.026 334.323L300.953 336.28L296.577 336.739L294.771 335.127L291.948 335.423L283.928 327.045C284.614 324.486 279.907 323.693 282.016 320.556C282.958 320.8 283.478 322.633 284.597 322.172C285.771 324.065 285.771 324.065 287.539 323.021C286.661 320.969 285.571 322.413 284.597 322.172L285.501 318.56L284.905 314.849L287.083 313.549C287.365 311.89 287.749 309.663 288.101 307.438C288.101 307.438 288.013 306.89 287.696 306.323L285.495 305.867L284.16 303.177L286.858 299.893C288.523 300.018 290.523 302.638 292.676 301.383L294.151 304.745C294.151 304.745 294.597 304.913 294.658 304.692L302.944 289.413C302.944 289.413 302.843 288.781 302.795 288.486C303.3 288.575 303.8 288.531 304.264 288.353C304.729 288.176 305.147 287.872 305.495 287.458C305.842 287.044 306.111 286.529 306.285 285.946C306.458 285.362 306.533 284.722 306.504 284.066L309.39 283.763C309.44 286.288 307.954 287.473 307.044 289.241C306.135 291.009 305.891 292.706 304.034 292.387L300.438 299.111L294.988 309.16L292.777 320.499L297.329 322.937L300.119 322.645L301.135 320.737L306.939 320.128L308.061 318.081L313.326 317.528L318.04 312.745L321.846 312.346L323.145 310.194L325.004 311.929C327.853 310.682 330.154 308.124 331.516 304.685L334.45 306.692L335.606 304.855L339.856 304.41L341.099 302.307L342.561 303.783L349.974 297.13L355.239 296.578C355.264 295.331 355.281 294.429 355.329 293.523C356.549 291.68 358.5 293.191 360.433 291.573L360.937 290.49C362.722 289.36 365.06 290.058 367.205 289.361L368.393 287.521L369.74 288.881C371.145 288.391 371.167 286.115 373.086 285.013L377.97 284.501L379.294 282.303L386.524 281.545L389.695 275.38L396.799 274.635L398.377 272.411L402.737 271.653L403.728 269.791L410.325 269.099L415.8 264.236C417.002 262.72 418.654 261.92 420.438 261.991C421.643 261.865 422.849 261.738 424.054 261.612L428.457 257.505L430.019 258.799C431.133 259.05 432.231 258.814 433.137 258.129C433.153 257.227 433.201 256.321 433.218 255.419C433.589 255.122 433.927 254.615 434.308 254.575C438.906 254.093 443.504 253.61 448.071 253.132L449.346 251.025C450.676 250.07 451.508 252.042 452.541 252.447L453.774 250.689L455.436 252.401L465.616 251.333L467.239 253.007L471.425 252.568C473.131 254.962 475.975 253.592 477.234 257.019C478.008 258.824 477.755 261.466 479.881 262.659L482.115 276.576C480.265 278.314 480.44 281.812 479.29 284.291C478.14 286.77 476.641 289.286 475.301 291.786C473.961 294.285 472.498 296.625 471.344 299.276C470.189 301.928 469.256 305.156 468.046 308.671C468.25 309.936 468.724 311.087 470.492 310.644L471.811 308.619L477.424 308.03L478.749 305.833L481.539 305.54L482.832 303.346L485.718 303.043L486.999 300.979C491.253 299.215 495.279 296.807 499.004 293.801L502.841 293.399C504.188 292.222 505.466 290.928 506.669 289.523C507.803 287.947 509.881 289.444 510.931 287.146C511.981 284.849 514.282 286.323 515.574 284.129C516.393 282.8 518.888 284.682 520.054 282.501C521.219 280.321 523.137 281.62 524.655 281.032C525.128 280.209 525.754 279.563 526.486 279.145C527.218 278.726 528.036 278.545 528.878 278.617L530.184 276.507L533.007 276.21L534.3 274.017L538.581 273.567L539.422 271.979C540.866 271.2 542.479 270.914 544.125 271.142L546.187 272.941L546.167 269.598L547.77 266.728L551.956 266.289L553.28 264.092L556.071 263.799L557.364 261.605L561.645 261.156L562.668 259.291L565.778 258.578L566.973 256.78C568.654 256.604 570.561 256.833 571.286 255.727C571.705 255.031 572.258 254.498 572.9 254.17C573.543 253.841 574.256 253.728 574.982 253.839C576.73 254.084 577.139 251.811 578.413 251.506C579.686 251.201 581.299 251.203 581.868 249.128L586.181 248.675L587.442 246.485L590.328 246.182L591.312 244.277L597.116 243.669L598.338 241.439L604.11 240.833L605.332 238.604L612.563 237.845L613.629 235.846L623.65 234.795L625.006 232.595L629.129 232.162L630.396 230.014L640.513 228.952L641.336 227.451C641.493 227.22 641.629 226.862 641.787 226.846L657.644 225.182L658.635 223.32L666.151 222.531L668.354 224.401L671.119 221.538L673.811 223.443L676.475 223.163L677.661 221.109L689.205 219.898L690.44 217.753C691.668 217.967 692.767 216.78 694.071 218.273L693.021 220.57L697.512 224.644L698.771 218.422L696.895 216.175C697.102 214.652 698.044 214.897 698.941 215.06C700.242 216.339 699.759 218.147 700.256 219.639L702.06 221.637L699.416 223.844C701.356 225.484 702.904 224.078 704.677 224.278L705.79 218.758L702.885 217.733C703.904 216.551 705.228 215.872 706.669 215.793L706.716 212.872C707.281 211.569 708.219 211.385 709.445 212.8L708.429 214.708L708.855 218.565L707.886 221.368C708.23 222.705 708.453 224.096 709.695 223.795ZM291.047 309.916C292.114 309.333 293.251 309.385 291.99 307.759C291.717 308.32 291.524 308.949 291.418 309.621C291.209 309.593 291.005 309.633 290.824 309.738C290.643 309.842 290.491 310.007 290.381 310.218C290.271 310.429 290.207 310.68 290.195 310.948C290.182 311.216 290.221 311.492 290.309 311.753C289.528 313.636 288.865 315.612 288.324 317.664C288.619 318.424 288.953 319.163 289.323 319.875L291.101 316.687L290.309 311.753C291.299 311.691 291.667 310.967 291.047 309.916Z" fill="#416262"/>
<path d="M339.468 204.746L341.656 204.517C343.082 205.568 342.669 207.413 343.155 209.034L342.193 211.279L345.77 217.293C344.818 219.194 342.66 218.006 341.294 218.535C339.203 221.004 337.924 224.452 337.67 228.306L338.985 229.669L337.978 231.834L339.699 233.711L340.328 237.633C339.12 239.347 338.554 241.85 336.728 243.329L334.251 241.359L333.026 243.374L331.409 243.543L330.471 241.112L331.652 238.629L327.882 236.838L338.454 217.117C338.42 216.906 338.325 216.316 338.034 215.703C335.976 213.732 335.659 216.381 334.737 217.464L330.487 217.91L329.571 219.636C327.915 220.443 326.028 220.475 324.2 219.728C325.024 217.408 326.464 215.625 328.29 214.667L323.497 214.141L322.833 211.209L324.723 210.324L326.71 212.26L328.835 212.037L329.659 213.752L337.397 212.94L337.73 209.389L339.944 210.529C340.489 208.499 339.614 206.661 339.468 204.746ZM332.857 234.686L333.473 235.308C333.597 234.874 333.686 234.419 333.739 233.95C333.739 233.95 333.354 233.562 333.162 233.368L332.857 234.686Z" fill="#416262"/>
<path d="M225.418 288.584L224.207 290.684L221.289 290.991L218.251 285.52C217.891 281.269 221.073 281.407 222.366 279.213C222.921 278.254 224.536 278.471 225.759 278.857C226.131 281.177 224.757 280.249 224.184 280.695C223.611 281.141 223.939 281.578 223.7 282.504C226.248 282.708 228.552 281.995 230.858 282.096C231.023 285.938 227.542 285.146 227.466 288.284C227.45 288.586 226.116 288.512 225.418 288.584Z" fill="#416262"/>
<path d="M257.457 255.547L253.5 255.405L252.782 252.736L256.419 249.481C257.391 249.128 258.455 249.15 259.493 249.545L258.906 252.523L261.608 253.482L261.953 255.633L258.4 259.008L257.457 255.547Z" fill="#416262"/>
<path d="M291.679 237.718C291.609 238.283 291.588 239.357 291.429 239.374C289.239 239.39 288.935 243.924 285.847 241.761L283.932 246.507L278.445 247.083C278.516 246.518 278.444 245.668 278.702 245.469C280.094 244.294 281.589 243.365 283.051 242.225C283.337 242.195 283.231 241.135 283.301 240.569L286.885 240.193L288.096 238.094L291.679 237.718Z" fill="#416262"/>
<path d="M283.303 240.572L279.561 240.965L278.174 238.151L281.873 233.475L282.696 235.789L285.663 237.194C285.582 239.304 282.516 237.481 283.303 240.572Z" fill="#416262"/>
<path d="M320.736 262.632L323.653 262.326C323.193 265.891 320.952 267.798 319.927 270.651C318.282 271.252 317.392 270.53 317.23 268.317C318.609 266.458 320.89 266.003 320.736 262.632Z" fill="#416262"/>
<path d="M253.48 266.727C255.674 264.454 258.076 262.521 260.648 260.959C260.806 260.942 261.057 261.301 261.275 261.45C261.497 264.643 259.243 264.665 258.019 266.08C256.795 267.495 255.692 268.254 254.345 269.51L253.48 266.727Z" fill="#416262"/>
<path d="M309.16 263.845C308.788 261.527 310.652 261.288 310.549 259.841C312.724 258.926 314.275 262.966 316.073 261.105L316.391 263.087L314.392 265.098L312.712 263.473L309.16 263.845Z" fill="#416262"/>
<path d="M316.677 223.088L315.274 225.594L314.231 222.316C315.691 220.361 317.641 221.658 319.658 220.16C319.977 219.74 320.4 217.551 322.338 218.978C322.432 220.769 321.385 221.479 320.927 222.643L316.677 223.088Z" fill="#416262"/>
<path d="M323.285 204.384C326.139 204.085 328.264 203.862 330.912 203.884L329.088 207.592L326.718 206.083C324.935 205.626 325.15 209.377 323.223 208.422C322.995 208.262 322.773 208.085 322.558 207.891C322.079 206.312 323.614 206.236 323.285 204.384Z" fill="#416262"/>
<path d="M303.967 222.452C301.444 222.202 304.073 226.128 302.114 226.377C301.276 225.779 301.497 224.34 301.117 223.179C300.619 221.959 300.042 220.785 299.393 219.672L300.607 217.187C301.97 217.044 302.404 219.142 303.459 219.289L303.967 222.452Z" fill="#416262"/>
<path d="M302.477 286.504L302.132 284.354L305.379 278.866L307.303 280.809L306.504 284.066L304.665 284.259L302.477 286.504Z" fill="#416262"/>
<path d="M245.856 275.292C245.24 278.487 242.751 279.048 241.175 280.886C240.994 281.163 240.31 280.72 239.744 280.608C239.446 278.752 240.749 278.229 241.092 276.95C243.198 278.016 243.037 273.401 245.209 274.674C245.436 274.856 245.653 275.063 245.856 275.292Z" fill="#416262"/>
<path d="M291.68 237.719C291.633 237.424 291.545 236.875 291.538 236.833C293.244 234.443 295.658 233.09 298.313 233.034C298.618 234.933 297.315 235.455 296.913 237.17L291.68 237.719Z" fill="#416262"/>
<path d="M226.744 292.434C227 296.438 223.741 296.222 222.647 298.653C222.43 299.105 221.411 298.783 220.174 298.912L221.158 296.407C221.844 294.448 224.133 294.852 224.69 292.692C224.819 292.292 226.047 292.506 226.744 292.434Z" fill="#416262"/>
<path d="M231.919 287.902C231.764 288.704 231.566 289.484 231.326 290.237C231.001 290.888 230.636 291.499 230.233 292.067L226.745 292.433C226.664 291.927 226.854 291.306 226.963 290.781C227.072 290.254 227.347 289.154 227.543 288.361L231.919 287.902Z" fill="#416262"/>
<path d="M340.433 224.629L341.892 224.477C343.493 225.809 343.075 227.825 343.28 229.906L341.49 230.608C341.125 230.256 340.807 229.822 340.556 229.33C340.305 228.838 340.126 228.299 340.027 227.744C339.929 227.188 339.914 226.626 339.984 226.092C340.054 225.558 340.206 225.06 340.433 224.629Z" fill="#416262"/>
<path d="M324.45 258.253L322.167 258.492C321.441 256.382 322.88 254.901 322.471 252.757L324.302 252.308C324.617 252.66 324.872 252.848 325.04 253.088C326.477 255.21 323.935 256.248 324.45 258.253Z" fill="#416262"/>
<path d="M268.099 256.148C267.581 257.268 266.876 258.204 266.027 258.899C265.179 259.593 264.205 260.03 263.167 260.182C262.883 258.411 264.07 257.771 264.483 256.528L268.099 256.148Z" fill="#416262"/>
<path d="M324.482 258.252L327.368 257.949C327.397 258.605 327.323 259.244 327.148 259.826C326.974 260.407 326.704 260.92 326.355 261.33C326.007 261.741 325.587 262.042 325.122 262.213C324.657 262.385 324.157 262.424 323.653 262.327C323.723 261.762 323.762 261.201 323.865 260.633C323.967 260.064 324.255 259.048 324.482 258.252Z" fill="#416262"/>
<path d="M316.072 261.106L314.271 258.122L315.811 255.259C317.47 256.757 317.004 259.078 317.531 260.953L316.072 261.106Z" fill="#416262"/>
<path d="M231.76 287.92C231.449 285.979 232.833 285.362 233.262 283.816L235.237 283.867C235.548 285.807 234.368 286.488 233.948 287.69L231.76 287.92Z" fill="#416262"/>
<path d="M322.586 246.44L323.216 250.363L320.33 250.665L319.707 246.785L322.586 246.44Z" fill="#416262"/>
<path d="M268.099 256.148C267.787 254.207 269.14 253.594 269.569 252.048L271.544 252.098C271.855 254.038 270.675 254.719 270.255 255.921L268.099 256.148Z" fill="#416262"/>
<path d="M269.725 248C269.413 246.059 270.766 245.446 271.227 243.896L274.172 246.375C272.68 248.333 271.079 247.6 269.725 248Z" fill="#416262"/>
<path d="M293.742 287.333C293.838 289.339 292.972 290.373 291.689 291.622L290.903 287.931L293.742 287.333Z" fill="#416262"/>
<path d="M298.219 232.445C299.898 230.854 299.898 230.854 302.392 231.322C301.545 233.683 299.648 232.51 298.219 232.445Z" fill="#416262"/>
<path d="M339.931 204.826C338.011 204.512 336.553 206.08 335.01 204.098C335.724 202.522 337.062 203.025 338.059 203.006C338.567 202.953 339.116 203.967 339.931 204.826Z" fill="#416262"/>
<path d="M303.967 222.452C304.973 222.689 306.063 221.245 306.94 223.297C305.148 224.386 305.148 224.386 303.967 222.452Z" fill="#416262"/>
<path d="M307.765 226.426C308.366 226.158 308.999 225.99 309.652 225.928C309.842 225.908 310.186 226.644 310.356 227.098C310.525 227.552 310.14 227.764 309.981 227.78C309.823 227.797 308.679 227.703 307.993 227.646L307.765 226.426Z" fill="#416262"/>
<path d="M295.048 230.378C294.046 231.77 293.267 231.938 292.242 230.973C292.499 228.759 293.513 229.253 295.048 230.378Z" fill="#416262"/>
<path d="M275.098 235.471C275.63 233.357 275.63 233.357 277.7 233.997C277.499 236.162 275.957 234.995 275.098 235.471Z" fill="#416262"/>
<path d="M275.1 235.472C274.562 237.544 274.562 237.544 272.524 236.9C272.693 234.738 274.234 235.906 275.1 235.472Z" fill="#416262"/>
<path d="M267.351 242.244C267.889 240.172 267.889 240.172 269.927 240.816C269.694 242.985 268.216 241.81 267.351 242.244Z" fill="#416262"/>
<path d="M320.298 250.669C319.767 252.783 319.767 252.783 317.728 252.139C317.929 249.974 319.376 251.152 320.298 250.669Z" fill="#416262"/>
<path d="M331.156 249.402C332.364 250.905 332.604 251.995 331.994 253.217C330.279 252.582 330.52 251.271 331.156 249.402Z" fill="#416262"/>
<path d="M320.734 262.63L317.848 262.933L317.53 260.95C318.141 260.712 318.799 260.643 319.465 260.747C319.963 261.039 320.341 261.985 320.734 262.63Z" fill="#416262"/>
<path d="M297.544 278.873C298.753 280.375 298.992 281.465 298.382 282.687C296.668 282.052 296.909 280.741 297.544 278.873Z" fill="#416262"/>
<path d="M328.841 212.079C329.373 209.965 329.373 209.965 331.443 210.606C331.208 212.56 329.698 211.389 328.841 212.079Z" fill="#416262"/>
<path d="M320.855 215.963L321.159 214.645C321.318 214.628 321.716 215.101 321.705 215.23C321.673 215.714 321.597 216.182 321.478 216.627L320.855 215.963Z" fill="#416262"/>
<path d="M316.559 218.128C316.288 218.414 315.993 218.66 315.678 218.864C315.678 218.864 315.293 218.476 315.1 218.282C315.371 217.995 315.666 217.75 315.982 217.546C315.982 217.546 316.367 217.934 316.559 218.128Z" fill="#416262"/>
<path d="M291.9 224.018L292.547 224.636C292.272 224.913 291.977 225.16 291.666 225.372C291.666 225.372 291.281 224.983 291.089 224.789L291.9 224.018Z" fill="#416262"/>
<path d="M285.38 228.602L286.33 226.487C287.584 228.071 286.454 228.061 285.38 228.602Z" fill="#416262"/>
<path d="M286.136 228.095L285.186 230.21C283.932 228.626 285.062 228.636 286.136 228.095Z" fill="#416262"/>
<path d="M344.953 223.855L343.938 223.361C344.063 223.133 344.186 222.692 344.319 222.721C344.688 222.82 345.05 222.984 345.397 223.209L344.953 223.855Z" fill="#416262"/>
<path d="M287.436 234.177C287.694 234.562 287.914 234.987 288.089 235.437C288.089 235.437 287.872 235.889 287.747 236.116C287.49 235.722 287.261 235.301 287.061 234.859C287.061 234.859 287.311 234.404 287.436 234.177Z" fill="#416262"/>
<path d="M267.696 241.993L266.685 244.329C265.524 242.521 266.654 242.531 267.696 241.993Z" fill="#416262"/>
<path d="M277.392 241.92L277.087 243.238C277.054 243.027 276.537 242.824 276.542 242.652C276.574 242.169 276.65 241.701 276.769 241.256L277.392 241.92Z" fill="#416262"/>
<path d="M262.069 247.516L261.765 248.835C261.573 248.64 261.215 248.421 261.22 248.249C261.247 247.777 261.326 247.321 261.454 246.895L262.069 247.516Z" fill="#416262"/>
<path d="M270.104 247.746L269.154 249.861C267.933 248.488 269.075 248.369 270.104 247.746Z" fill="#416262"/>
<path d="M278.825 246.831L277.875 248.947C276.655 247.573 277.765 247.457 278.825 246.831Z" fill="#416262"/>
<path d="M275.61 251.112L274.575 250.492C274.7 250.264 274.823 249.823 274.95 249.81C275.307 249.952 275.659 250.13 276.003 250.342L275.61 251.112Z" fill="#416262"/>
<path d="M322.215 246.737L323.159 244.579C324.419 246.205 323.251 246.156 322.215 246.737Z" fill="#416262"/>
<path d="M329.83 246.967L329.406 247.74C329.153 247.35 328.934 246.926 328.752 246.479C328.752 246.479 328.963 245.986 329.088 245.758L329.83 246.967Z" fill="#416262"/>
<path d="M334.067 245.839L333.762 247.157C333.538 246.966 333.174 246.704 333.178 246.532C333.231 246.063 333.32 245.609 333.444 245.175L334.067 245.839Z" fill="#416262"/>
<path d="M256.255 259.706L256.871 260.327C256.6 260.612 256.305 260.859 255.989 261.063C255.989 261.063 255.636 260.671 255.412 260.481L256.255 259.706Z" fill="#416262"/>
<path d="M703.569 213.759L703.145 214.532C702.889 214.127 702.667 213.69 702.484 213.23C702.484 213.23 702.702 212.778 702.827 212.551L703.569 213.759Z" fill="#416262"/>
<path d="M241.168 264.162L240.744 264.936C240.486 264.549 240.266 264.125 240.09 263.674C240.09 263.674 240.308 263.223 240.433 262.995L241.168 264.162Z" fill="#416262"/>
<path d="M328.13 256.065L329.081 253.95C330.335 255.534 329.204 255.524 328.13 256.065Z" fill="#416262"/>
<path d="M238.494 265.984L238.189 267.303C238.149 267.05 237.632 266.847 237.637 266.675C237.665 266.203 237.744 265.747 237.871 265.32L238.494 265.984Z" fill="#416262"/>
<path d="M328.509 255.812C328.725 257.162 328.39 257.884 327.368 257.948C327.113 256.56 327.487 255.877 328.509 255.812Z" fill="#416262"/>
<path d="M712.082 215.566C712.34 215.952 712.56 216.377 712.736 216.827C712.736 216.827 712.518 217.279 712.4 217.548C712.146 217.135 711.915 216.7 711.708 216.249C711.708 216.249 711.957 215.794 712.082 215.566Z" fill="#416262"/>
<path d="M715.433 221.78L713.696 220.203C714.755 218.763 714.872 220.294 715.433 221.78Z" fill="#416262"/>
<path d="M719.226 220.094L718.834 220.864C718.588 220.46 718.359 220.04 718.148 219.606C718.148 219.606 718.391 219.109 718.516 218.882L719.226 220.094Z" fill="#416262"/>
<path d="M241.968 271.151L242.591 271.815C242.32 272.101 242.025 272.347 241.709 272.551C241.709 272.551 241.356 272.159 241.132 271.968L241.968 271.151Z" fill="#416262"/>
<path d="M309.499 263.552L308.587 265.706C307.327 264.08 308.559 264.122 309.499 263.552Z" fill="#416262"/>
<path d="M317.849 262.935C317.998 263.863 318.14 264.748 317.148 264.595C316.895 264.621 316.637 263.619 316.39 263.087L317.849 262.935Z" fill="#416262"/>
<path d="M709.354 224.088L710.266 221.935C711.563 223.385 710.389 223.508 709.354 224.088Z" fill="#416262"/>
<path d="M714.94 220.715L716.702 222.245C715.65 223.727 715.501 222.199 714.94 220.715Z" fill="#416262"/>
<path d="M236.482 273.745L237.105 274.409C236.847 274.688 236.559 274.92 236.248 275.099C236.248 275.099 235.87 274.753 235.678 274.558L236.482 273.745Z" fill="#416262"/>
<path d="M212.772 290.169L213.716 288.011C214.882 289.647 213.745 289.595 212.772 290.169Z" fill="#416262"/>
<path d="M213.428 289.629L212.484 291.786C211.223 290.16 212.354 290.171 213.428 289.629Z" fill="#416262"/>
<path d="M310.158 281.923L311.109 279.807C312.363 281.391 311.327 281.37 310.158 281.923Z" fill="#416262"/>
<path d="M209.926 292.525L210.573 293.144C210.303 293.429 210.007 293.675 209.692 293.88C209.692 293.88 209.307 293.491 209.115 293.297L209.926 292.525Z" fill="#416262"/>
<path d="M294.525 285.578L295.469 283.421C296.729 285.047 295.592 284.994 294.525 285.578Z" fill="#416262"/>
<path d="M309.39 283.763C309.173 282.414 309.515 281.735 310.536 281.67C310.785 283.016 310.418 283.741 309.39 283.763Z" fill="#416262"/>
<path d="M217.151 293.74L218.186 294.361C218.027 294.377 217.938 295.03 217.805 295.001C217.447 294.892 217.096 294.727 216.759 294.511L217.151 293.74Z" fill="#416262"/>
<path d="M294.897 285.283C295.12 286.675 294.777 287.354 293.756 287.418C293.508 286.072 293.875 285.348 294.897 285.283Z" fill="#416262"/>
<path d="M302.795 288.487C302.066 288.563 301.431 288.63 301.412 287.302C301.358 286.965 302.099 286.759 302.477 286.505L302.795 288.487Z" fill="#416262"/>
<path d="M211.987 300.543L210.226 299.013C211.278 297.531 211.426 299.059 211.987 300.543Z" fill="#416262"/>
<path d="M298.384 291.135L299.302 289.023C300.563 290.649 299.426 290.597 298.384 291.135Z" fill="#416262"/>
<path d="M211.74 300.011C212.723 299.908 213.326 300.445 213.486 301.844C212.509 301.989 211.952 301.533 211.74 300.011Z" fill="#416262"/>
<path d="M218.242 299.33C218.509 299.713 218.74 300.136 218.927 300.587C218.927 300.587 218.716 301.08 218.56 301.312C218.316 300.896 218.095 300.461 217.899 300.009C217.899 300.009 218.117 299.557 218.242 299.33Z" fill="#416262"/>
<path d="M299.109 290.631L298.158 292.746C296.778 291.175 298.067 291.169 299.109 290.631Z" fill="#416262"/>
<path d="M290.339 295.065L289.94 295.793C289.682 295.407 289.462 294.983 289.286 294.533C289.286 294.533 289.504 294.081 289.629 293.854L290.339 295.065Z" fill="#416262"/>
<path d="M296.367 295.848L296.062 297.167C295.87 296.973 295.505 296.711 295.517 296.581C295.549 296.098 295.625 295.629 295.744 295.185L296.367 295.848Z" fill="#416262"/>
</g>
<defs>
<clipPath id="clip0_1_227">
<path d="M0 8.00001C0 3.58173 3.58172 0 8 0H1052C1056.42 0 1060 3.58172 1060 8V296C1060 300.418 1056.42 304 1052 304H7.99997C3.58169 304 0 300.418 0 296V8.00001Z" fill="white"/>
</clipPath>
</defs>
</svg>
