<svg width="241" height="23" viewBox="0 0 241 23" fill="none" xmlns="http://www.w3.org/2000/svg">
<path d="M82.3786 4.4883C82.5919 4.17223 82.7582 3.81205 82.8695 3.42448L85.7348 3.57953L86.9188 2.4469C87.5772 2.74847 87.8047 4.25002 89.31 3.18791L90.0051 2.45426L95.8649 2.77135L96.7642 1.75625C98.6966 1.4353 100.793 1.97423 102.87 1.82071L103.702 0.881738L113.375 1.40516L114.58 0.300189L116.174 1.60986L117.775 0.286969L134.449 1.18927L135.571 0L168.036 1.7568L169.213 3.25654L171.414 2.0725L176.972 2.37327L177.97 3.43789C179.276 4.35956 180.438 2.64057 181.783 2.44741L182.88 3.75675L190.464 4.16709L191.54 3.05512L192.219 3.96957C192.348 3.97657 192.445 4.30091 192.573 4.3079L208.193 5.15308L209.477 6.68522L211.42 5.46063L215.212 5.6658L216.036 6.77424L219.009 6.93511L220.039 5.87387L221.032 7.09775L222.949 7.20151L224.047 6.06413L225.735 8.38939C226.845 8.71544 227.868 9.11648 228.807 7.57165L233.783 7.84094L234.756 9.0371C235.803 9.33311 236.921 8.83514 238.142 9.72562L237.209 11.0582L241 13.7365C238.103 14.4574 226.033 13.9904 215.672 12.7649L214.973 11.7962L211.979 11.6342L210.926 12.7208L205.044 12.4026L204.074 11.1533L203.108 12.2445C201.754 12.2912 200.401 12.2179 199.058 12.0253L198.276 10.9459L193.256 10.6743L192.207 11.6281L188.415 11.423C188.025 10.9552 187.556 10.5985 187.043 10.3777C186.528 10.1569 185.981 10.0774 185.439 10.1449L184.319 11.2811L178.503 10.9664L177.359 12.1809L170.487 11.8091L169.766 12.6478C169.637 12.6408 169.497 12.9523 169.368 12.9453L138.044 11.2503L136.657 12.6114L134.765 11.1793C134.306 10.9298 133.791 10.8852 133.308 11.0533C132.826 11.2213 132.405 11.5915 132.121 12.0999L106.592 10.7185L105.384 11.9296L101.484 11.7186L100.513 10.496C100.2 10.3927 99.8698 10.4043 99.5624 10.5294C99.255 10.6546 98.984 10.8877 98.7829 11.2002C97.951 12.1391 97.33 11.3875 96.6549 10.3404L95.5195 11.3161L92.805 11.1692L91.532 12.3769L83.8196 11.9595L82.6111 13.1707L72.852 12.6426L71.7297 13.8584L62.8755 13.3792L61.9968 14.4221L59.0884 14.2647L57.8145 15.499L57.0108 14.4183L52.8961 14.1956L51.9069 15.3122L46.9734 15.0453L46.0282 16.1377L40.19 15.8217L39.0462 17.0364L35.1038 16.8231L34.2467 17.8671L30.2612 17.6513C29.834 18.1336 29.6073 18.4404 29.3395 18.6919C28.5563 19.4739 27.3912 18.2407 26.6586 19.4244C25.9261 20.6081 25.1515 19.9279 24.4817 19.9449C23.812 19.9618 23.2107 19.876 22.6917 20.5128C21.784 21.7669 20.0064 20.1549 19.2896 22.1106L14.3131 21.8414L13.2379 20.5066C13.0168 21.2659 12.7976 21.972 12.5559 22.7036C11.4474 23.0687 10.2836 23.0969 9.16415 22.7861L8.57988 20.3876L7.42205 21.3887L6.46677 20.3264L5.39417 21.3587L2.37812 21.1955L0.0348466 17.8773C-0.0547853 16.9838 0.0290949 16.0768 0.279553 15.2312L3.48949 15.4048L4.48882 16.4428L8.49588 16.6598L9.37267 15.67L12.238 15.8251L13.4248 14.6128L16.29 14.7677L17.4338 13.5532L22.3242 13.8178L23.2459 12.7773L26.1973 12.937L27.2325 11.7431L29.9685 11.8912L31.3493 10.6893L35.8302 10.9318L39.565 8.47443L46.028 8.82416L47.1492 7.63489L55.0126 8.06039C55.2599 7.78124 55.5071 7.50212 55.9137 6.99223L60.8471 7.25918L61.9488 6.01562L66.8606 6.28141L67.9622 5.03792L73.8652 5.35734L74.8328 4.23954L79.6585 4.50067L80.8003 3.33914C81.2221 3.80704 81.695 4.19968 82.2053 4.50554C82.3757 5.17963 82.148 6.12468 83.1466 5.35428C82.9329 5.01339 82.673 4.72045 82.3786 4.4883Z" fill="#ADC9A6"/>
</svg>
